<svg width="256" height="256" viewBox="0 0 256 256" fill="none" xmlns="http://www.w3.org/2000/svg">
  <rect width="256" height="256" rx="64" fill="#EAF2FF"/>
  <circle cx="128" cy="104" r="54" fill="#B9CCF7"/>
  <path d="M68 213C78.8333 177 100 159 128 159C156 159 177.167 177 188 213" fill="#5B86E5"/>
  <path d="M154.806 81.7227C148.279 70.5987 135.512 63 121.052 63C100.235 63 83.3516 78.5975 83.3516 97.8378C83.3516 117.078 100.235 132.676 121.052 132.676C139.635 132.676 155.076 120.251 158.124 103.77H121.052V91.2108H172.975C173.483 94.0972 173.751 97.0802 173.751 100.16C173.751 131.462 150.506 153 121.052 153C92.4854 153 69 130.503 69 102.943C69 75.3823 92.4854 52.8857 121.052 52.8857C136.89 52.8857 150.902 58.7347 160.946 68.3539L154.806 81.7227Z" fill="#34A853"/>
  <path d="M173.751 100.16C173.751 98.0254 173.623 95.9366 173.376 93.8926H121.052V116.451H151.021C149.636 124.667 144.846 131.605 137.759 136.174L152.534 147.641C166.169 135.79 173.751 119.714 173.751 100.16Z" fill="#4285F4"/>
  <path d="M83.4264 122.624L80.0933 125.175L68.2954 133.873C77.3961 150.947 97.4044 163 121.052 163C136.002 163 148.545 158.03 157.211 149.546L142.436 138.079C136.313 142.145 128.914 144.495 121.052 144.495C106.618 144.495 94.3336 135.277 89.9404 122.856L83.4264 122.624Z" fill="#FBBC05"/>
  <path d="M69 102.943C69 110.971 71.1367 118.555 74.9404 125.144C74.966 125.193 89.966 122.807 89.966 122.807C88.8385 119.746 88.2145 116.472 88.2145 113.1C88.2145 109.728 88.8385 106.454 89.966 103.393L75.1888 91.9951C71.1581 98.486 69 105.995 69 113.1V102.943Z" fill="#EA4335"/>
</svg>
